<svg viewBox="0 0 76 59">
    <g clip-path="url(#clip-FCC7136E-5822-426B-85DB-A53C5B88F7D4)">
        <path fill="#040608" d="M72.388 12.892a7.302 7.302 0 0 0 0-10.682c-3.09-2.947-8.1-2.947-11.189 0a7.374 7.374 0 0 0-2.311 5.195l-15.093 14.4h16.069l7.019-6.698a8.103 8.103 0 0 0 5.505-2.215zM76 24.372H0c0 13.15 8.899 24.494 21.762 29.76a1.904 1.904 0 0 0-.018.226v3.206A1.443 1.443 0 0 0 23.184 59h30.852a1.445 1.445 0 0 0 1.445-1.436v-3.206a1.393 1.393 0 0 0-.173-.681C67.595 48.23 76.011 37.15 76 24.37z" />
    </g>
</svg>