<svg viewBox="0 0 70 78">
    <path fill="#1d1d1b" d="M0 27.859V13.765C0 6.386 5.76 0 13.403 0c7.642 0 13.292 6.386 13.292 13.765v14.094c0 7.378-5.65 13.544-13.292 13.544C5.76 41.403 0 35.237 0 27.859zm16.172-14.094c0-2.093-1.44-3.305-2.769-3.305-1.33 0-2.77 1.212-2.77 3.305v14.094c0 2.092 1.44 3.083 2.77 3.083 1.329 0 2.769-.99 2.769-3.083zm9.634 60.343c-.996 2.311-2.878 3.193-4.762 3.193-3.432 0-5.647-2.202-5.647-5.175 0-.771.11-1.543.443-2.093l27.796-66.73C44.633.992 46.516 0 48.399 0c3.433 0 5.648 2.312 5.648 5.286 0 .77-.11 1.32-.444 2.091zm17.06-10.241V49.662c0-7.378 5.76-13.654 13.403-13.654 7.643 0 13.293 6.276 13.293 13.654v14.205c0 7.488-5.65 13.434-13.293 13.434-7.642 0-13.402-5.946-13.402-13.434zm16.172-14.205c0-1.872-1.44-3.194-2.769-3.194-1.218 0-2.768 1.322-2.768 3.194v14.205c0 1.871 1.55 3.082 2.768 3.082 1.33 0 2.77-1.211 2.77-3.082z" />
</svg>