<svg xmlns="http://www.w3.org/2000/svg" width="30" height="30" viewBox="0 0 30 30"><g><g clip-path="url(#clip-DEA0965B-D122-41FC-AFA3-DB9E6CBDB491)"><path fill="#040608" d="M28.911 16.84a2.236 2.236 0 0 1 .968 2.652 15.174 15.174 0 0 1-3.72 6.015A15.266 15.266 0 0 1 15.3 30h-.014a15.266 15.266 0 0 1-10.867-4.513c-5.698-5.71-5.913-15.197-.48-21.147A15.405 15.405 0 0 1 10.38.128a2.28 2.28 0 0 1 2.712.975c.57.923.436 2.055-.334 2.818a10.18 10.18 0 0 0-.519.555c-3.024 3.51-3.005 8.785.046 12.273a9.336 9.336 0 0 0 6.776 3.22c2.63.084 5.105-.885 6.966-2.743l.01-.01.022-.022c.776-.784 1.92-.924 2.852-.354zm-1.119 1.825c-.11-.066-.172-.005-.204.028l-.047.045a11.59 11.59 0 0 1-8.553 3.371 11.46 11.46 0 0 1-8.316-3.952C6.924 13.873 6.9 7.39 10.616 3.08c.203-.235.415-.462.632-.678.038-.036.08-.079.021-.174-.043-.07-.092-.087-.133-.087a.218.218 0 0 0-.071.014A13.264 13.264 0 0 0 5.52 5.781c-4.673 5.12-4.486 13.282.415 18.196a13.142 13.142 0 0 0 9.352 3.884h.013c3.53 0 6.849-1.373 9.345-3.866a13.04 13.04 0 0 0 3.2-5.174c.017-.053.034-.103-.053-.156z"/></g></g></svg>