<svg xmlns="http://www.w3.org/2000/svg" width="55" height="62" viewBox="0 0 55 62"><g><g clip-path="url(#clip-E2E89AA8-321C-412B-8FDF-F12C629DF937)" opacity=".41"><path fill="#040608" d="M22.644.72l7.604 4.483c-2.544 1.637-4.312 3.248-5.643 5.464a16.04 16.04 0 0 0-9.179-2.898c-.98 0-1.95.095-2.885.266-.882-1.995-.85-4.134.042-5.708.93-1.64 2.925-2.768 5.277-2.855 1.688-.041 3.475.491 4.784 1.249zm8.963 5.286l8.639 5.083c3.765 2.215 4.538 6.5 2.95 9.299-1.561 2.757-5.628 4.244-9.392 2.03L31.54 21.08c-.837-3.779-2.903-7.16-5.86-9.587 1.302-2.254 3.07-3.742 5.927-5.487zM14.63 9.217c3.45-.204 7.548 1.32 10.017 3.231L6.765 37.794C2.825 34.963.26 30.256.26 24.909c0-8.402 6.348-15.272 14.37-15.692zM25.7 13.365c3.13 2.992 4.903 7.176 4.894 11.55 0 8.679-6.784 15.675-15.169 15.675-2.726 0-5.286-.728-7.496-2.029zM50.313 26.5c2.91.827 5.317 4.876 4.118 9.631l-2.198 8.785c-3.574-3.469-6.553-4.87-11.879-4.994l1.833-7.29c1.152-3.897 4.039-7.095 8.126-6.132zm-21.486 8.427c2.981 1.402 4.885 4.453 4.869 7.803a8.83 8.83 0 0 1-.798 3.658l-10.191-6.11a16.74 16.74 0 0 0 6.12-5.35zm-7.711 6.063l11.117 6.647c-1.539 2.29-4.087 3.66-6.809 3.658-3.979-.176-8.306-3.635-8.23-9.345a15.93 15.93 0 0 0 3.922-.96zm18.874.357c5.602.061 8.06 1.297 11.835 5.129l-2.5 9.97c-1.092 4.336-4.908 6.211-7.934 5.35-2.979-.85-5.403-4.54-4.313-8.875z"/></g></g></svg>